<?xml version="1.0" encoding="UTF-8"?>
<svg version="1.1" xmlns="http://www.w3.org/2000/svg" width="601" height="295">
<path d="M0 0 C6.96529232 3.60726062 13.51959408 7.97071825 20.1171875 12.19921875 C24.55168964 15.0110563 29.03578831 17.74021055 33.51953125 20.47265625 C36.07421875 22.07421875 36.07421875 22.07421875 37.07421875 23.07421875 C37.1621285 25.36573292 37.18115913 27.65994399 37.171875 29.953125 C37.17046005 30.63978745 37.1690451 31.32644989 37.16758728 32.03392029 C37.16197354 34.23489676 37.14941882 36.43577284 37.13671875 38.63671875 C37.13170551 40.12564958 37.1271423 41.61458199 37.12304688 43.10351562 C37.11199968 46.7604495 37.09472588 50.41732433 37.07421875 54.07421875 C33.41015625 55.24609375 33.41015625 55.24609375 30.38671875 53.69921875 C28.07421875 52.07421875 28.07421875 52.07421875 27.07421875 51.07421875 C27.19760066 49.59759766 27.3715824 48.1251532 27.56640625 46.65625 C28.07771172 40.57075423 28.42471889 34.82066836 26.07421875 29.07421875 C20.57027084 23.16853179 13.00761868 19.72379762 5.77001953 16.37207031 C3.4187802 15.24010253 1.3503789 13.9913525 -0.81640625 12.55078125 C-3.82587256 10.70996451 -3.82587256 10.70996451 -6.83984375 11.85546875 C-7.73445313 12.42265625 -8.6290625 12.98984375 -9.55078125 13.57421875 C-10.49953125 14.16074219 -11.44828125 14.74726562 -12.42578125 15.3515625 C-15.03131535 17.14693834 -17.47454763 19.07452817 -19.92578125 21.07421875 C-22.1721609 22.37883125 -24.44565295 23.61418559 -26.7421875 24.828125 C-27.46277344 25.23933594 -28.18335937 25.65054688 -28.92578125 26.07421875 C-29.61824951 26.44450195 -30.31071777 26.81478516 -31.02416992 27.19628906 C-33.3475628 29.49074766 -33.43303724 31.0972343 -33.53143311 34.29301453 C-33.53327606 35.31973015 -33.53327606 35.31973015 -33.53515625 36.3671875 C-33.5516925 37.07321609 -33.56822876 37.77924469 -33.58526611 38.50666809 C-33.63379413 40.75843967 -33.65512563 43.00953584 -33.67578125 45.26171875 C-33.70393724 46.78974761 -33.73386416 48.31774494 -33.765625 49.84570312 C-33.83955319 53.58848603 -33.88909748 57.33089299 -33.92578125 61.07421875 C-33.19222412 61.3482251 -32.45866699 61.62223145 -31.70288086 61.90454102 C-29.08384764 63.00764327 -26.87358269 64.24893102 -24.4921875 65.7890625 C-23.27112305 66.57120117 -23.27112305 66.57120117 -22.02539062 67.36914062 C-21.18814453 67.91119141 -20.35089844 68.45324219 -19.48828125 69.01171875 C-12.00894156 74.14242327 -12.00894156 74.14242327 -3.92578125 78.07421875 C-1.3045318 77.3789608 -1.3045318 77.3789608 0.94921875 75.76171875 C2.12097656 75.02501953 2.12097656 75.02501953 3.31640625 74.2734375 C3.89648438 73.87769531 4.4765625 73.48195313 5.07421875 73.07421875 C3.77528872 69.17742866 1.41810528 67.98363345 -1.86328125 65.82421875 C-3.0496307 65.02366202 -4.23582697 64.22287823 -5.421875 63.421875 C-6.30915283 62.82850342 -6.30915283 62.82850342 -7.21435547 62.22314453 C-10.45561976 60.04719735 -13.65596111 57.81588895 -16.82421875 55.53515625 C-19.0364526 53.93904175 -19.0364526 53.93904175 -22.05078125 52.38671875 C-24.93124736 48.83414388 -24.43851812 45.29973486 -24.39453125 40.8515625 C-23.92578125 38.07421875 -23.92578125 38.07421875 -22.5546875 36.22265625 C-20.25307798 34.59993875 -18.67419967 34.72185741 -15.92578125 35.07421875 C-13.92578125 37.07421875 -13.92578125 37.07421875 -13.61328125 40.44921875 C-13.26717407 44.08851606 -13.26717407 44.08851606 -10.98828125 46.07421875 C-9.97765625 46.73421875 -8.96703125 47.39421875 -7.92578125 48.07421875 C-6.2579344 49.2600606 -4.5913768 50.44771686 -2.92578125 51.63671875 C-0.47988313 53.35266915 1.95355513 55.00262885 4.5234375 56.52734375 C7.43340833 58.29204275 10.14478127 60.24655988 12.88671875 62.26171875 C13.86253906 62.97714844 14.83835938 63.69257813 15.84375 64.4296875 C16.57980469 64.97238281 17.31585938 65.51507813 18.07421875 66.07421875 C18.07421875 65.41421875 18.07421875 64.75421875 18.07421875 64.07421875 C20.54921875 63.57921875 20.54921875 63.57921875 23.07421875 63.07421875 C24.35132684 66.90554301 24.74606408 69.04314677 24.07421875 73.07421875 C21.55095754 76.05625473 18.33994506 77.97453705 15.07421875 80.07421875 C14.37184082 80.53505859 13.66946289 80.99589844 12.94580078 81.47070312 C10.56370145 83.0259128 8.16659303 84.55448854 5.76171875 86.07421875 C4.97297363 86.57985352 4.18422852 87.08548828 3.37158203 87.60644531 C2.61731934 88.07018555 1.86305664 88.53392578 1.0859375 89.01171875 C0.41006592 89.43324219 -0.26580566 89.85476562 -0.9621582 90.2890625 C-3.40120606 91.26431774 -4.4999705 90.98603262 -6.92578125 90.07421875 C-8.8984375 88.875 -8.8984375 88.875 -10.98828125 87.38671875 C-14.23969687 85.15400965 -17.50159646 83.16733074 -20.98828125 81.32421875 C-25.95723993 78.66656802 -30.76321822 75.79217805 -35.55078125 72.82421875 C-36.26242432 72.38754883 -36.97406738 71.95087891 -37.70727539 71.50097656 C-42.80592371 68.31393383 -42.80592371 68.31393383 -43.92578125 66.07421875 C-44.02983193 64.70153881 -44.07438854 63.32407065 -44.08691406 61.94750977 C-44.09652161 61.09645157 -44.10612915 60.24539337 -44.11602783 59.36854553 C-44.12027771 58.44770676 -44.12452759 57.52686798 -44.12890625 56.578125 C-44.13460632 55.63363998 -44.1403064 54.68915497 -44.1461792 53.71604919 C-44.15563418 51.71622846 -44.16216515 49.71639211 -44.16601562 47.71655273 C-44.17573103 44.65255698 -44.20675369 41.58922913 -44.23828125 38.52539062 C-44.2448102 36.58463941 -44.2500611 34.64388339 -44.25390625 32.703125 C-44.26625305 31.78431046 -44.27859985 30.86549591 -44.2913208 29.9188385 C-44.2883197 29.06462814 -44.2853186 28.21041779 -44.28222656 27.33032227 C-44.28587219 26.57912613 -44.28951782 25.82792999 -44.29327393 25.05397034 C-43.8247602 22.52999949 -42.87905777 21.68427496 -40.92578125 20.07421875 C-39.71666876 19.25317283 -38.47957562 18.47236616 -37.22265625 17.7265625 C-36.4963501 17.29069824 -35.77004395 16.85483398 -35.02172852 16.40576172 C-34.24756592 15.94572754 -33.47340332 15.48569336 -32.67578125 15.01171875 C-25.85410416 10.91166488 -19.17199683 6.66485864 -12.61035156 2.15991211 C-7.7371243 -1.15920612 -5.55662892 -2.57445491 0 0 Z " fill="#645DE5" transform="translate(132.92578125,100.92578125)"/>
<path d="M0 0 C8 0 8 0 9.84765625 1.14453125 C10.24855469 1.69496094 10.64945313 2.24539062 11.0625 2.8125 C11.54074219 3.45445313 12.01898438 4.09640625 12.51171875 4.7578125 C14.76247547 8.14871632 16.97994708 11.55365954 19.1328125 15.0078125 C21.1357499 18.21754064 23.17769209 21.39710659 25.25 24.5625 C25.89453125 25.55378906 26.5390625 26.54507813 27.203125 27.56640625 C28.93744074 30.20375786 28.93744074 30.20375786 32 32 C32.03758423 30.59923218 32.03758423 30.59923218 32.07592773 29.17016602 C32.17086928 25.71674811 32.27011258 22.2635104 32.37231445 18.81030273 C32.41571813 17.31360731 32.45738913 15.81686061 32.49731445 14.32006836 C32.55488616 12.17285688 32.61861716 10.02590479 32.68359375 7.87890625 C32.72025146 6.5854126 32.75690918 5.29191895 32.79467773 3.95922852 C33 1 33 1 34 0 C37.5 -0.125 37.5 -0.125 41 0 C42.62754644 1.62754644 42.12737077 3.44138323 42.12939453 5.6875 C42.13254669 6.68523437 42.13569885 7.68296875 42.13894653 8.7109375 C42.1369223 9.79632813 42.13489807 10.88171875 42.1328125 12 C42.13376923 13.10601562 42.13472595 14.21203125 42.13571167 15.3515625 C42.13639367 17.69531308 42.13453804 20.03906553 42.13037109 22.3828125 C42.12502314 25.98441788 42.13031547 29.58589853 42.13671875 33.1875 C42.13605797 35.45833361 42.13477682 37.72916714 42.1328125 40 C42.13483673 41.08539063 42.13686096 42.17078125 42.13894653 43.2890625 C42.13421829 44.78566406 42.13421829 44.78566406 42.12939453 46.3125 C42.12859894 47.19550781 42.12780334 48.07851562 42.12698364 48.98828125 C42 51 42 51 41 52 C35.94172806 52.85733423 35.94172806 52.85733423 33 52 C30.16672288 49.05386698 27 45.23465465 27 41 C26.34 41 25.68 41 25 41 C23.45266686 38.81939538 22.02441801 36.64791094 20.625 34.375 C19.84682661 33.13251648 19.06818441 31.89032645 18.2890625 30.6484375 C17.91040039 30.0409668 17.53173828 29.43349609 17.14160156 28.80761719 C15.47666061 26.17134199 13.74233555 23.58565779 12 21 C11.01 21.33 10.02 21.66 9 22 C9.01047363 22.69561035 9.02094727 23.3912207 9.03173828 24.10791016 C9.07348637 27.28023623 9.09938585 30.45250431 9.125 33.625 C9.15013672 35.26662109 9.15013672 35.26662109 9.17578125 36.94140625 C9.23662606 46.98079979 9.23662606 46.98079979 7 52 C4.69 52 2.38 52 0 52 C0 34.84 0 17.68 0 0 Z M8 14 C9 16 9 16 9 16 Z M10 18 C11 20 11 20 11 20 Z " fill="#192230" transform="translate(205,120)"/>
<path d="M0 0 C2.0078125 0.5234375 2.0078125 0.5234375 3.62890625 2.703125 C4.97054256 5.44720832 6.12962575 8.16108752 7.1953125 11.0234375 C7.83339844 12.71533203 7.83339844 12.71533203 8.484375 14.44140625 C8.99247703 15.80197525 9.50025901 17.16266378 10.0078125 18.5234375 C11.00817599 21.19917707 12.01104722 23.87390817 13.01879883 26.546875 C13.70499553 28.36696116 14.38730753 30.18851801 15.06518555 32.01171875 C16.61462286 36.12188655 18.23560963 40.07645572 20.26953125 43.97265625 C22.0078125 47.5234375 22.0078125 47.5234375 21.7578125 50.5234375 C21.5103125 51.1834375 21.2628125 51.8434375 21.0078125 52.5234375 C17.6328125 52.6484375 17.6328125 52.6484375 14.0078125 52.5234375 C11.34544378 49.86106878 10.94842171 47.19461385 9.984375 43.6171875 C9.16476207 41.45730287 9.16476207 41.45730287 7.421875 40.25 C3.88413598 39.1852436 0.41273468 39.31449052 -3.2421875 39.3984375 C-4.35980469 39.41197266 -4.35980469 39.41197266 -5.5 39.42578125 C-7.33086809 39.44925392 -9.16156988 39.48512225 -10.9921875 39.5234375 C-11.34152344 40.37808594 -11.69085938 41.23273438 -12.05078125 42.11328125 C-12.73333984 43.77037109 -12.73333984 43.77037109 -13.4296875 45.4609375 C-13.88214844 46.56308594 -14.33460938 47.66523438 -14.80078125 48.80078125 C-15.9921875 51.5234375 -15.9921875 51.5234375 -16.9921875 52.5234375 C-19.66277601 52.66458911 -22.31650988 52.56590857 -24.9921875 52.5234375 C-23.629524 39.57813429 -23.629524 39.57813429 -20.59765625 35.7734375 C-18.49463254 32.8261342 -17.38422115 29.65487858 -16.1796875 26.2734375 C-15.6589515 24.8502248 -15.13811502 23.42704886 -14.6171875 22.00390625 C-14.35164063 21.27091309 -14.08609375 20.53791992 -13.8125 19.78271484 C-12.45468573 16.04306805 -11.0686383 12.31410695 -9.6796875 8.5859375 C-9.42533936 7.8940332 -9.17099121 7.20212891 -8.90893555 6.48925781 C-6.73498542 0.63978603 -6.32725142 0.44360803 0 0 Z M-1.9921875 10.5234375 C-0.9921875 13.5234375 -0.9921875 13.5234375 -0.9921875 13.5234375 Z M-2.9921875 13.5234375 C-6.53002433 22.2561683 -6.53002433 22.2561683 -6.9921875 31.5234375 C-3.6921875 31.5234375 -0.3921875 31.5234375 3.0078125 31.5234375 C4.2541828 27.20907877 3.69095089 24.48977218 2.2578125 20.2734375 C1.91234375 19.21640625 1.566875 18.159375 1.2109375 17.0703125 C0.81390625 16.22984375 0.416875 15.389375 0.0078125 14.5234375 C-0.9821875 14.1934375 -1.9721875 13.8634375 -2.9921875 13.5234375 Z " fill="#182131" transform="translate(415.9921875,119.4765625)"/>
<path d="M0 0 C3.50755365 2.97610613 5.20244181 6.28927605 6.0625 10.75 C6.14341092 12.77468711 6.17008899 14.80184619 6.16015625 16.828125 C6.15693359 17.98828125 6.15371094 19.1484375 6.15039062 20.34375 C6.13782227 22.15359375 6.13782227 22.15359375 6.125 24 C6.12048828 25.22203125 6.11597656 26.4440625 6.11132812 27.703125 C6.09954815 30.71879946 6.08309853 33.73437498 6.0625 36.75 C-0.5625 38 -0.5625 38 -3.9375 35.75 C-4.75927734 36.23533203 -4.75927734 36.23533203 -5.59765625 36.73046875 C-10.61876912 38.91829923 -16.73807524 38.45194407 -21.875 36.8125 C-25.11859821 33.56890179 -27.18918852 30.32621254 -27.9375 25.75 C-26.63249891 20.80963872 -24.18984629 17.60266131 -20 14.75 C-14.21418006 12.86075267 -8.96499236 12.64607772 -2.9375 12.75 C-3.9275 10.77 -4.9175 8.79 -5.9375 6.75 C-7.21625 6.729375 -8.495 6.70875 -9.8125 6.6875 C-10.53179687 6.67589844 -11.25109375 6.66429687 -11.9921875 6.65234375 C-14.01935404 6.62350758 -14.01935404 6.62350758 -15.9375 7.75 C-16.2675 8.74 -16.5975 9.73 -16.9375 10.75 C-19.5775 10.75 -22.2175 10.75 -24.9375 10.75 C-24.65609633 7.09175235 -24.44840362 4.47705515 -22.3125 1.4375 C-15.61194006 -3.32342417 -7.36957698 -3.1359902 0 0 Z M-17.9375 22.75 C-18.77083333 25.75 -18.77083333 25.75 -17.9375 28.75 C-15.95700153 30.95572041 -15.95700153 30.95572041 -12.9375 31.75 C-9.20656679 31.17106209 -6.82144515 30.54840207 -4 28 C-2.64441003 25.12933889 -2.72370485 22.88566218 -2.9375 19.75 C-11.09014185 19.04548867 -11.09014185 19.04548867 -17.9375 22.75 Z " fill="#181F2D" transform="translate(353.9375,134.25)"/>
<path d="M0 0 C3.72931828 3.29057495 6.51841536 7.8706767 7.125 12.875 C7.15836713 15.54203468 7.13576633 18.20764274 7.125 20.875 C6.43873535 20.90005615 5.7524707 20.9251123 5.04541016 20.95092773 C1.94674183 21.06671427 -1.15160923 21.18951885 -4.25 21.3125 C-5.87035156 21.37147461 -5.87035156 21.37147461 -7.5234375 21.43164062 C-8.5546875 21.47353516 -9.5859375 21.51542969 -10.6484375 21.55859375 C-12.07808838 21.61358032 -12.07808838 21.61358032 -13.53662109 21.66967773 C-15.89632349 21.73263465 -15.89632349 21.73263465 -17.875 22.875 C-16.73680488 26.52549528 -16.73680488 26.52549528 -14.125 29.1875 C-11.10451784 30.1104251 -9.02183604 30.32454801 -5.875 29.875 C-5.05 29.05 -4.225 28.225 -3.375 27.375 C-0.875 24.875 -0.875 24.875 2.4375 24.5625 C3.324375 24.665625 4.21125 24.76875 5.125 24.875 C5.875 26.5 5.875 26.5 6.125 28.875 C3.78919363 33.27709662 1.58398376 35.70559372 -2.875 37.875 C-8.46543103 38.58867205 -13.95235372 38.42432751 -19.375 36.875 C-24.10408899 33.09172881 -26.89480202 28.51839139 -27.8125 22.5 C-28.19986954 15.23994509 -27.31397858 9.11173706 -22.625 3.375 C-16.16263299 -3.19352499 -8.34269436 -3.26453258 0 0 Z M-16.375 8.125 C-18.19423475 10.93818188 -18.19423475 10.93818188 -17.875 14.875 C-12.265 14.875 -6.655 14.875 -0.875 14.875 C-3.16316787 8.33923835 -3.16316787 8.33923835 -5.875 5.875 C-11.70205041 5.09226823 -11.70205041 5.09226823 -16.375 8.125 Z " fill="#192534" transform="translate(280.875,134.125)"/>
<path d="M0 0 C9.50754787 0.2064365 15.34556448 3.60853478 22.78808594 8.96240234 C25.66377151 10.97378907 28.66827634 12.7646963 31.67578125 14.5703125 C33.64375733 15.76287656 35.60350058 16.96924689 37.55078125 18.1953125 C38.25928223 18.58001709 38.9677832 18.96472168 39.69775391 19.36108398 C41.55078125 21.1953125 41.55078125 21.1953125 42.00488281 24.3815918 C41.98393555 25.66461182 41.96298828 26.94763184 41.94140625 28.26953125 C41.93574646 28.9533638 41.93008667 29.63719635 41.92425537 30.3417511 C41.90188941 32.52282149 41.8516989 34.70224003 41.80078125 36.8828125 C41.78071625 38.36260645 41.76246547 39.8424262 41.74609375 41.32226562 C41.70202599 44.9471501 41.63299947 48.57107006 41.55078125 52.1953125 C37.88671875 53.3671875 37.88671875 53.3671875 34.86328125 51.8203125 C32.55078125 50.1953125 32.55078125 50.1953125 31.55078125 49.1953125 C31.67416316 47.71869141 31.8481449 46.24624695 32.04296875 44.77734375 C32.55427422 38.69184798 32.90128139 32.94176211 30.55078125 27.1953125 C25.04293899 21.28544693 17.47944183 17.8544022 10.24536133 14.484375 C7.9368593 13.38000871 5.8370063 12.17895017 3.6796875 10.8125 C0.17299617 9.00005279 -1.53215033 8.87426533 -5.38671875 9.4453125 C-6.34449219 9.57421875 -7.30226563 9.703125 -8.2890625 9.8359375 C-9.00191406 9.95453125 -9.71476562 10.073125 -10.44921875 10.1953125 C-10.44921875 10.8553125 -10.44921875 11.5153125 -10.44921875 12.1953125 C-11.76921875 12.1953125 -13.08921875 12.1953125 -14.44921875 12.1953125 C-14.77921875 10.8753125 -15.10921875 9.5553125 -15.44921875 8.1953125 C-13.46921875 7.8653125 -11.48921875 7.5353125 -9.44921875 7.1953125 C-9.11921875 6.2053125 -8.78921875 5.2153125 -8.44921875 4.1953125 C-5.94921875 2.5703125 -5.94921875 2.5703125 -3.44921875 1.1953125 C-2.44921875 0.1953125 -2.44921875 0.1953125 0 0 Z " fill="#695CCE" transform="translate(128.44921875,102.8046875)"/>
<path d="M0 0 C3.19250691 -0.65153202 5.83170945 -0.84220382 9 0 C12.10301814 3.10301814 16 7.41508507 16 12 C18.84546876 9.47069444 20.47984477 7.09415817 22.1875 3.75 C23.4296875 1.640625 23.4296875 1.640625 25 0 C28.10369507 -0.68971001 30.87512641 -0.49017625 34 0 C33.22093924 3.47238509 32.04464928 6.05570504 30 9 C29.34 9 28.68 9 28 9 C27.71125 9.763125 27.4225 10.52625 27.125 11.3125 C26 14 26 14 24 17 C24.27337586 21.06809311 25.58329178 23.05744658 28.375 25.9375 C31.27000339 29.09460246 33.48486674 31.92807937 35 36 C34.67 36.99 34.34 37.98 34 39 C30.9375 39.5625 30.9375 39.5625 27 39 C24.24912403 36.27663279 22.17914913 33.18535255 20 30 C18.0745356 27.7763932 18.0745356 27.7763932 15 27 C14.79375 27.680625 14.5875 28.36125 14.375 29.0625 C12.54085241 32.98090621 10.40711129 36.27738737 7 39 C3.125 39.4375 3.125 39.4375 0 39 C0.54349039 34.45976487 2.33911522 31.65417696 4.9375 27.9375 C8.27169164 23.14503915 8.27169164 23.14503915 11 18 C7.91123087 13.30507092 4.67810638 8.7301475 1.390625 4.171875 C0 2 0 2 0 0 Z " fill="#1A2535" transform="translate(290,133)"/>
<path d="M0 0 C0.66 0.33 1.32 0.66 2 1 C2.02505615 1.68626465 2.0501123 2.3725293 2.07592773 3.07958984 C2.19171427 6.17825817 2.31451885 9.27660923 2.4375 12.375 C2.47681641 13.45523438 2.51613281 14.53546875 2.55664062 15.6484375 C2.59853516 16.6796875 2.64042969 17.7109375 2.68359375 18.7734375 C2.72025146 19.72653809 2.75690918 20.67963867 2.79467773 21.66162109 C2.85763465 24.02132349 2.85763465 24.02132349 4 26 C6.34038186 27.13102526 6.34038186 27.13102526 9.0625 28.125 C10.44115234 28.65480469 10.44115234 28.65480469 11.84765625 29.1953125 C12.55792969 29.46085937 13.26820312 29.72640625 14 30 C14 30.66 14 31.32 14 32 C14.99 32 15.98 32 17 32 C17 32.66 17 33.32 17 34 C18.175625 34.185625 18.175625 34.185625 19.375 34.375 C22 35 22 35 24 37 C25.98821313 37.39764263 27.98944339 37.73775349 30 38 C29.67 38.99 29.34 39.98 29 41 C31.97 41.33 34.94 41.66 38 42 C38.66 41.01 39.32 40.02 40 39 C43.625 38.3125 43.625 38.3125 47 38 C46.7525 36.576875 46.7525 36.576875 46.5 35.125 C46.04380027 32.2737517 46 29.88013553 46 27 C47.98 27.33 49.96 27.66 52 28 C52 28.66 52 29.32 52 30 C54.31 30 56.62 30 59 30 C59.4375 32.6875 59.4375 32.6875 59 36 C56.9555557 38.17961417 54.71319347 39.75369568 52 41 C50.68 41 49.36 41 48 41 C47.67 41.99 47.34 42.98 47 44 C46.34 44 45.68 44 45 44 C44.505 44.99 44.505 44.99 44 46 C43.195625 46.309375 42.39125 46.61875 41.5625 46.9375 C38.70136041 47.84547289 38.70136041 47.84547289 37 51 C31.69616459 49.31241601 27.31038966 47.56721903 23 44 C22.67 43.34 22.34 42.68 22 42 C20.17293875 41.46386733 20.17293875 41.46386733 18.0625 41.125 C15.85546875 40.63671875 15.85546875 40.63671875 14 40 C12.875 37.9375 12.875 37.9375 12 36 C8.94091587 35.18415432 8.94091587 35.18415432 6 35 C6 34.34 6 33.68 6 33 C4.68 33 3.36 33 2 33 C1.67 31.68 1.34 30.36 1 29 C-0.65 28.67 -2.3 28.34 -4 28 C-4.125 23.25 -4.125 23.25 -3 21 C-2.97413843 17.39785341 -3.02835353 13.80936342 -3.12695312 10.20898438 C-3.2131861 4.31977916 -3.2131861 4.31977916 -1 1 C-0.67 0.67 -0.34 0.34 0 0 Z " fill="#635EE7" transform="translate(95,139)"/>
<path d="M0 0 C5.95703125 -0.48828125 5.95703125 -0.48828125 8 0 C10.41109126 3.2283121 11.78847897 6.74234062 13.1875 10.5 C13.61289062 11.62792969 14.03828125 12.75585938 14.4765625 13.91796875 C14.98466453 15.27853775 15.49244651 16.63922628 16 18 C17.00036349 20.67573957 18.00323472 23.35047067 19.01098633 26.0234375 C19.69718303 27.84352366 20.37949503 29.66508051 21.05737305 31.48828125 C22.60681036 35.59844905 24.22779713 39.55301822 26.26171875 43.44921875 C28 47 28 47 27.75 50 C27.5025 50.66 27.255 51.32 27 52 C23.625 52.125 23.625 52.125 20 52 C17.65085508 49.65085508 17.26859643 48.04320554 16.375 44.875 C16.11460937 43.96492188 15.85421875 43.05484375 15.5859375 42.1171875 C15.39257812 41.41851562 15.19921875 40.71984375 15 40 C15.99 40 16.98 40 18 40 C18.99 42.31 19.98 44.62 21 47 C22.485 46.505 22.485 46.505 24 46 C23.42655063 43.13275314 23.1385485 42.1385485 21 40 C20.48324769 38.49801114 20.0333733 36.97250317 19.625 35.4375 C18.37241124 31.0116864 16.74710286 26.96021574 14.76953125 22.8125 C14 21 14 21 14 19 C13.34 19 12.68 19 12 19 C11.67 19.66 11.34 20.32 11 21 C11.33 21.33 11.66 21.66 12 22 C12.46212633 25.6570738 12.70429173 29.32476863 13 33 C7.06 33 1.12 33 -5 33 C-4.67 32.01 -4.34 31.02 -4 30 C0.29 30.33 4.58 30.66 9 31 C8.53478901 24.95225709 7.66426443 20.44436644 5 15 C4.34 15 3.68 15 3 15 C1.68 19.29 0.36 23.58 -1 28 C-1.99 28 -2.98 28 -4 28 C-4 26.35 -4 24.7 -4 23 C-3.34 23 -2.68 23 -2 23 C-1.87625 22.0925 -1.7525 21.185 -1.625 20.25 C-1.07890323 17.41029677 -0.42736197 15.47409409 1 13 C-0.16685266 14.16685266 -1.30017401 15.3668496 -2.4375 16.5625 C-5 19 -5 19 -7 19 C-5.17778624 12.38757278 -2.94776396 6.19479329 0 0 Z M4 10 C5 13 5 13 5 13 Z " fill="#1C2539" transform="translate(410,120)"/>
<path d="M0 0 C2.4921875 1.35546875 2.4921875 1.35546875 4.875 3.1875 C8.64145724 6.00806934 12.4199491 8.5256852 16.50390625 10.859375 C18 12 18 12 19 15 C19.39400565 19.89476249 19.60186749 24.44781543 17.8125 29.0625 C15.64843512 31.37581073 14.09119363 32.30448143 11 33 C10.01 32.34 9.02 31.68 8 31 C7.83984375 28.42578125 7.83984375 28.42578125 7.9375 25.3125 C7.72481787 21.45185703 7.60525963 19.6452296 4.9296875 16.79296875 C2.35189949 15.02699159 -0.24888954 13.47944913 -3 12 C-8.86644407 8.40066778 -8.86644407 8.40066778 -10 5 C-8.24144885 -0.27565345 -5.06037263 -0.52632948 0 0 Z " fill="#5B63C0" transform="translate(131,123)"/>
<path d="M0 0 C1.134375 0.020625 2.26875 0.04125 3.4375 0.0625 C3.60603903 6.66429294 3.76587019 13.26625573 3.91967773 19.8684082 C3.97301443 22.11389935 4.02833708 24.35934425 4.08569336 26.60473633 C4.16783682 29.83404571 4.2428138 33.06345458 4.31640625 36.29296875 C4.34344131 37.29522995 4.37047638 38.29749115 4.39833069 39.3301239 C4.41842697 40.27072159 4.43852325 41.21131927 4.45922852 42.18041992 C4.47921402 43.00426682 4.49919952 43.82811371 4.51979065 44.67692566 C4.43164978 47.23209555 4.00310449 49.57288141 3.4375 52.0625 C1.1275 52.0625 -1.1825 52.0625 -3.5625 52.0625 C-5.91899662 46.51986795 -5.75453971 41.56431727 -5.57421875 35.66796875 C-5.55156448 34.68000809 -5.52891022 33.69204742 -5.50556946 32.67414856 C-5.45577819 30.59554567 -5.40084149 28.51706039 -5.34106445 26.4387207 C-5.249824 23.24383728 -5.1753741 20.04888805 -5.10351562 16.85351562 C-5.05306322 14.83330862 -5.00166441 12.81312499 -4.94921875 10.79296875 C-4.92623215 9.83263229 -4.90324554 8.87229584 -4.87956238 7.88285828 C-4.85316177 7.00136612 -4.82676117 6.11987396 -4.79956055 5.21166992 C-4.77798386 4.4325676 -4.75640717 3.65346527 -4.73417664 2.85075378 C-4.41110243 -0.51451882 -3.50743434 0.06153394 0 0 Z " fill="#202B40" transform="translate(446.5625,119.9375)"/>
<path d="M0 0 C1.98 0 3.96 0 6 0 C6 15.84 6 31.68 6 48 C3.69 48 1.38 48 -1 48 C-1.4125 46.948125 -1.825 45.89625 -2.25 44.8125 C-3.69411378 41.41295943 -5.55191058 38.78575693 -8 36 C-6.92598892 33.08482708 -6.22189824 31.22189824 -4 29 C-3.34 29.33 -2.68 29.66 -2 30 C-1.96241577 28.74340576 -1.96241577 28.74340576 -1.92407227 27.46142578 C-1.82899643 24.35647744 -1.72975975 21.25169819 -1.62768555 18.14697266 C-1.56301749 16.14105193 -1.50316894 14.13497772 -1.44335938 12.12890625 C-1.40146484 10.87207031 -1.35957031 9.61523438 -1.31640625 8.3203125 C-1.27974854 7.15773926 -1.24309082 5.99516602 -1.20532227 4.79736328 C-1 2 -1 2 0 0 Z " fill="#17212C" transform="translate(239,122)"/>
<path d="M0 0 C-2.13796826 2.13796826 -3.12174921 2.43201653 -5.9375 3.25 C-9.19598207 4.42897806 -9.91118622 4.87889031 -12.0625 7.8125 C-13.13877992 11.47185172 -13.18026996 13.38050544 -12 17 C-10.69138543 19.55985074 -10.69138543 19.55985074 -8 21 C-4.63986965 21.32704565 -1.36428611 21.23113416 2 21 C-0.57093082 20.14302306 -3.04482928 19.51199363 -5.6875 18.9375 C-6.49574219 18.76089844 -7.30398438 18.58429688 -8.13671875 18.40234375 C-8.75160156 18.26957031 -9.36648438 18.13679688 -10 18 C-9.67 17.34 -9.34 16.68 -9 16 C-9.08651631 14.45386986 -9.24002636 12.91090613 -9.4375 11.375 C-9.59025391 10.14910156 -9.59025391 10.14910156 -9.74609375 8.8984375 C-9.82988281 8.27195313 -9.91367187 7.64546875 -10 7 C-4.04897588 4.46530454 1.49194828 3.048387 8 3 C8.66 3.33 9.32 3.66 10 4 C10.125 11.75 10.125 11.75 9 14 C8.34 14 7.68 14 7 14 C7.495 14.391875 7.99 14.78375 8.5 15.1875 C10.45593143 17.55091715 10.24207973 19.01435003 10 22 C11.32 21.34 12.64 20.68 14 20 C13.97679687 19.25234375 13.95359375 18.5046875 13.9296875 17.734375 C13.90261719 16.25710937 13.90261719 16.25710937 13.875 14.75 C13.85179687 13.77546875 13.82859375 12.8009375 13.8046875 11.796875 C14.00137219 8.9803502 14.55431084 7.39050964 16 5 C16.33 5 16.66 5 17 5 C17 10.94 17 16.88 17 23 C10 24 10 24 7 22 C6.17822266 22.48533203 6.17822266 22.48533203 5.33984375 22.98046875 C0.31873088 25.16829923 -5.80057524 24.70194407 -10.9375 23.0625 C-14.18109821 19.81890179 -16.25168852 16.57621254 -17 12 C-15.69206113 7.04851714 -13.21584386 3.8536776 -9.0625 0.9375 C-5.86381682 -0.04168873 -3.32516149 -0.23751153 0 0 Z M-7 9 C-7.83333333 12 -7.83333333 12 -7 15 C-5.01950153 17.20572041 -5.01950153 17.20572041 -2 18 C1.73093321 17.42106209 4.11605485 16.79840207 6.9375 14.25 C8.29308997 11.37933889 8.21379515 9.13566218 8 6 C-0.15264185 5.29548867 -0.15264185 5.29548867 -7 9 Z " fill="#1C2A3C" transform="translate(343,148)"/>
<path d="M0 0 C3.79477147 3.21980609 5.56947528 6.81975284 6.0625 11.75 C5.625 14.5625 5.625 14.5625 5.0625 16.75 C4.7325 16.09 4.4025 15.43 4.0625 14.75 C3.4025 14.75 2.7425 14.75 2.0625 14.75 C2.3925 13.43 2.7225 12.11 3.0625 10.75 C2.0725 10.75 1.0825 10.75 0.0625 10.75 C-0.2675 10.09 -0.5975 9.43 -0.9375 8.75 C-0.9375 11.06 -0.9375 13.37 -0.9375 15.75 C-2.9175 15.75 -4.8975 15.75 -6.9375 15.75 C-6.9375 15.09 -6.9375 14.43 -6.9375 13.75 C-5.6175 13.75 -4.2975 13.75 -2.9375 13.75 C-3.9275 11.44 -4.9175 9.13 -5.9375 6.75 C-7.21625 6.729375 -8.495 6.70875 -9.8125 6.6875 C-10.53179687 6.67589844 -11.25109375 6.66429687 -11.9921875 6.65234375 C-14.01935404 6.62350758 -14.01935404 6.62350758 -15.9375 7.75 C-16.2675 8.74 -16.5975 9.73 -16.9375 10.75 C-19.5775 10.75 -22.2175 10.75 -24.9375 10.75 C-24.65609633 7.09175235 -24.44840362 4.47705515 -22.3125 1.4375 C-15.61194006 -3.32342417 -7.36957698 -3.1359902 0 0 Z " fill="#14202E" transform="translate(353.9375,134.25)"/>
<path d="M0 0 C5.70629354 0.42797202 9.41078616 2.84345952 14 6 C14 3.84365964 13.5534764 2.07553648 13 0 C17.49951868 0 20.15409718 0.86557288 23.75 3.5625 C24.67039063 4.24505859 24.67039063 4.24505859 25.609375 4.94140625 C26.06828125 5.29074219 26.5271875 5.64007813 27 6 C27 5.34 27 4.68 27 4 C28.65 3.67 30.3 3.34 32 3 C33.27710809 6.83132426 33.67184533 8.96892802 33 13 C26.9234653 19.95835372 16.92867936 24.39321792 9 29 C9 26 9 26 11 24 C12.32 24 13.64 24 15 24 C15.33 23.01 15.66 22.02 16 21 C16.66 21 17.32 21 18 21 C18.33 20.34 18.66 19.68 19 19 C21.31979381 17.96898053 23.65429915 16.97063483 26 16 C29.31460705 14.29107501 29.31460705 14.29107501 29.6875 10.875 C29.790625 9.92625 29.89375 8.9775 30 8 C28.453125 8.0928125 28.453125 8.0928125 26.875 8.1875 C22.76531027 7.98864405 20.51117504 7.05532197 17 5 C17.7763932 8.0745356 17.7763932 8.0745356 20 10 C19.34 11.98 18.68 13.96 18 16 C16.329375 16.12375 16.329375 16.12375 14.625 16.25 C13.42875 16.4975 12.2325 16.745 11 17 C10.34 18.32 9.68 19.64 9 21 C5.7 20.67 2.4 20.34 -1 20 C-0.505 18.515 -0.505 18.515 0 17 C0.72574219 17.21527344 1.45148438 17.43054688 2.19921875 17.65234375 C5.64412618 18.0799543 6.8900121 17.35088812 9.8125 15.5625 C10.60269531 15.08941406 11.39289063 14.61632812 12.20703125 14.12890625 C12.79871094 13.75636719 13.39039063 13.38382813 14 13 C12.64308716 8.92926148 9.87553483 7.62113445 6.4375 5.375 C4.27120264 3.94138751 2.1304634 2.48747236 0 1 C0 0.67 0 0.34 0 0 Z " fill="#565BD6" transform="translate(124,161)"/>
<path d="M0 0 C3.48221175 0.17411059 5.65214817 0.68551124 8.75 2.1875 C8.42 3.5075 8.09 4.8275 7.75 6.1875 C8.53375 6.31125 9.3175 6.435 10.125 6.5625 C12.75 7.1875 12.75 7.1875 14.75 9.1875 C14.75 10.1775 14.75 11.1675 14.75 12.1875 C15.41 12.1875 16.07 12.1875 16.75 12.1875 C17.08 11.5275 17.41 10.8675 17.75 10.1875 C20.6875 11.375 20.6875 11.375 23.75 13.1875 C24.625 15.875 24.625 15.875 24.75 18.1875 C20.0215805 17.61435824 15.17313355 15.61063355 11.75 12.1875 C9.7871607 11.96225615 7.82355278 11.73995212 5.85546875 11.56640625 C3.75 11.1875 3.75 11.1875 1.84765625 10.12890625 C-0.96681597 8.86580047 -2.96012798 9.20061047 -6 9.5625 C-6.98484375 9.67335938 -7.9696875 9.78421875 -8.984375 9.8984375 C-9.73203125 9.99382812 -10.4796875 10.08921875 -11.25 10.1875 C-11.25 10.8475 -11.25 11.5075 -11.25 12.1875 C-12.57 12.1875 -13.89 12.1875 -15.25 12.1875 C-15.58 10.8675 -15.91 9.5475 -16.25 8.1875 C-14.27 7.8575 -12.29 7.5275 -10.25 7.1875 C-9.92 6.1975 -9.59 5.2075 -9.25 4.1875 C-6.75 2.5625 -6.75 2.5625 -4.25 1.1875 C-3.25 0.1875 -3.25 0.1875 0 0 Z " fill="#765BE9" transform="translate(129.25,102.8125)"/>
<path d="M0 0 C0.66 0.33 1.32 0.66 2 1 C1.01 1.33 0.02 1.66 -1 2 C-1.33 2.99 -1.66 3.98 -2 5 C-2.66 5 -3.32 5 -4 5 C-4.33 5.66 -4.66 6.32 -5 7 C-10.42307692 10 -10.42307692 10 -13 10 C-13 24.52 -13 39.04 -13 54 C-11.68 54.33 -10.36 54.66 -9 55 C-7 57 -7 57 -6 59 C-5.34 59 -4.68 59 -4 59 C-4 59.66 -4 60.32 -4 61 C-2.515 60.505 -2.515 60.505 -1 60 C0.54296875 61.109375 0.54296875 61.109375 2.1875 62.75 C4.81822283 65.17879102 6.9754359 66.55838086 10.375 67.6875 C11.57125 68.120625 12.7675 68.55375 14 69 C14.33 69.99 14.66 70.98 15 72 C16.97583715 72.73519522 18.98177598 73.39072482 21 74 C23.01470098 74.97004121 25.01922047 75.96244882 27 77 C26.34 77.66 25.68 78.32 25 79 C21.72866074 78.63803553 19.5776904 77.19271036 16.9375 75.3125 C13.68608438 73.0797909 10.42418479 71.09311199 6.9375 69.25 C1.96854132 66.59234927 -2.83743697 63.7179593 -7.625 60.75 C-8.6924646 60.09499512 -8.6924646 60.09499512 -9.78149414 59.42675781 C-14.88014246 56.23971508 -14.88014246 56.23971508 -16 54 C-16.10405068 52.62732006 -16.14860729 51.2498519 -16.16113281 49.87329102 C-16.17074036 49.02223282 -16.1803479 48.17117462 -16.19024658 47.29432678 C-16.19449646 46.37348801 -16.19874634 45.45264923 -16.203125 44.50390625 C-16.20882507 43.55942123 -16.21452515 42.61493622 -16.22039795 41.64183044 C-16.22985293 39.64200971 -16.2363839 37.64217336 -16.24023438 35.64233398 C-16.24994978 32.57833823 -16.28097244 29.51501038 -16.3125 26.45117188 C-16.31902895 24.51042066 -16.32427985 22.56966464 -16.328125 20.62890625 C-16.3404718 19.71009171 -16.3528186 18.79127716 -16.36553955 17.84461975 C-16.36253845 16.99040939 -16.35953735 16.13619904 -16.35644531 15.25610352 C-16.36009094 14.50490738 -16.36373657 13.75371124 -16.36749268 12.97975159 C-15.89348366 10.42617663 -14.98918841 9.62516569 -13 8 C-10.8307156 6.52986076 -8.66581333 5.12277829 -6.4375 3.75 C-5.84775391 3.37359375 -5.25800781 2.9971875 -4.65039062 2.609375 C-3.13894996 1.6739669 -1.57228969 0.82906354 0 0 Z " fill="#4C5DBD" transform="translate(105,113)"/>
<path d="M0 0 C8 0 8 0 9.98828125 1.3203125 C10.64376953 2.21363281 10.64376953 2.21363281 11.3125 3.125 C11.78558594 3.75792969 12.25867188 4.39085938 12.74609375 5.04296875 C14.3879255 7.60545382 15.77694313 10.21414825 17 13 C16.01 13.495 16.01 13.495 15 14 C15 13.34 15 12.68 15 12 C14.34 12 13.68 12 13 12 C11.4921875 10.03125 11.4921875 10.03125 9.875 7.5 C9.33617187 6.6646875 8.79734375 5.829375 8.2421875 4.96875 C7.83226562 4.3190625 7.42234375 3.669375 7 3 C5.68 3.33 4.36 3.66 3 4 C2.67 18.85 2.34 33.7 2 49 C3.32 49.33 4.64 49.66 6 50 C6 39.77 6 29.54 6 19 C6.66 19 7.32 19 8 19 C8.22673326 23.37424917 8.42813881 27.74931272 8.625 32.125 C8.68945312 33.3625 8.75390625 34.6 8.8203125 35.875 C8.871875 37.07382813 8.9234375 38.27265625 8.9765625 39.5078125 C9.02893066 40.60754395 9.08129883 41.70727539 9.13525391 42.84033203 C8.99025277 46.22770511 8.21602659 48.84995159 7 52 C4.69 52 2.38 52 0 52 C0 34.84 0 17.68 0 0 Z " fill="#1E2E42" transform="translate(205,120)"/>
<path d="M0 0 C1.83984375 0.19140625 1.83984375 0.19140625 4 1 C5.37890625 3.15234375 5.37890625 3.15234375 6.5625 5.9375 C6.98273438 6.92492187 7.40296875 7.91234375 7.8359375 8.9296875 C9.21711447 12.57265764 10.34137525 16.23533456 11.32421875 20.00390625 C11.90280899 22.19815197 11.90280899 22.19815197 14 24 C14.625 26.625 14.625 26.625 15 29 C13.35 29.33 11.7 29.66 10 30 C9.84144531 29.43410156 9.68289063 28.86820313 9.51953125 28.28515625 C8.81484074 26.06985847 8.10429427 24.04772677 7 22 C4.50324332 21.01666329 4.50324332 21.01666329 2 21 C1.34 20.34 0.68 19.68 0 19 C-3.34560573 18.65223309 -6.67015043 18.5566652 -10.03125 18.44140625 C-11.0109375 18.29574219 -11.990625 18.15007812 -13 18 C-13.66 17.01 -14.32 16.02 -15 15 C-9.06 15 -3.12 15 3 15 C2.690625 13.453125 2.38125 11.90625 2.0625 10.3125 C1.03125 5.15625 1.03125 5.15625 0 0 Z " fill="#18202C" transform="translate(420,138)"/>
<path d="M0 0 C-1.25103516 0.76183594 -1.25103516 0.76183594 -2.52734375 1.5390625 C-9.11070901 5.5660007 -15.61088991 9.66920657 -22 14 C-23.01666748 14.53689453 -24.03333496 15.07378906 -25.08081055 15.62695312 C-28.31054608 17.75437147 -28.31054608 17.75437147 -28.77294922 21.39160156 C-28.78342285 22.7112793 -28.79389648 24.03095703 -28.8046875 25.390625 C-28.82524704 26.44754547 -28.82524704 26.44754547 -28.84622192 27.52581787 C-28.88349918 29.76786279 -28.87980976 32.00768941 -28.875 34.25 C-28.89312886 35.77347208 -28.91393218 37.29691485 -28.9375 38.8203125 C-28.98932476 42.54703579 -29.00443254 46.27287094 -29 50 C-28.27079346 50.27183105 -27.54158691 50.54366211 -26.7902832 50.82373047 C-24.10192507 51.95703255 -21.80966284 53.2509639 -19.35546875 54.8203125 C-18.51435547 55.35527344 -17.67324219 55.89023438 -16.80664062 56.44140625 C-15.51016602 57.27478516 -15.51016602 57.27478516 -14.1875 58.125 C-13.30384766 58.68832031 -12.42019531 59.25164062 -11.50976562 59.83203125 C-9.33742587 61.21763174 -7.16762917 62.60704634 -5 64 C-6.90625 64.5859375 -6.90625 64.5859375 -9 65 C-10.5 63.625 -10.5 63.625 -12 62 C-14.10332891 61.28552357 -14.10332891 61.28552357 -16 61 C-16 60.34 -16 59.68 -16 59 C-16.99 59 -17.98 59 -19 59 C-19 58.34 -19 57.68 -19 57 C-19.69867188 56.81824219 -20.39734375 56.63648438 -21.1171875 56.44921875 C-22.48230469 56.07216797 -22.48230469 56.07216797 -23.875 55.6875 C-24.77992187 55.44386719 -25.68484375 55.20023438 -26.6171875 54.94921875 C-29 54 -29 54 -31 51 C-31.18336449 48.50421577 -31.25630096 46.1231536 -31.23046875 43.62890625 C-31.23001053 42.9101683 -31.22955231 42.19143036 -31.2290802 41.45091248 C-31.22606176 39.93202055 -31.21818763 38.41313161 -31.20581055 36.89428711 C-31.18759498 34.57459485 -31.18530069 32.25530309 -31.18554688 29.93554688 C-31.18062966 28.4583299 -31.17480046 26.98111561 -31.16796875 25.50390625 C-31.16685593 24.81212784 -31.1657431 24.12034943 -31.16459656 23.40760803 C-31.13246531 20.13044909 -31.00238235 17.13513202 -30 14 C-28.35 14 -26.7 14 -25 14 C-25 13.01 -25 12.02 -25 11 C-24.01 11 -23.02 11 -22 11 C-22 10.34 -22 9.68 -22 9 C-21.34 9 -20.68 9 -20 9 C-20 8.34 -20 7.68 -20 7 C-19.21753906 6.73445313 -18.43507813 6.46890625 -17.62890625 6.1953125 C-16.61699219 5.84210938 -15.60507813 5.48890625 -14.5625 5.125 C-13.04849609 4.60292969 -13.04849609 4.60292969 -11.50390625 4.0703125 C-8.86028249 3.25944907 -8.86028249 3.25944907 -8 1 C-3.6 -1.2 -3.6 -1.2 0 0 Z " fill="#5964C1" transform="translate(128,112)"/>
<path d="M0 0 C3.16245084 0.56472336 6.10177527 1.62715671 9 3 C11.36008817 6.54013225 11.23463644 8.01121955 11.1953125 12.19921875 C11.18564453 14.01196289 11.18564453 14.01196289 11.17578125 15.86132812 C11.15902344 17.12396484 11.14226562 18.38660156 11.125 19.6875 C11.11597656 20.96173828 11.10695312 22.23597656 11.09765625 23.54882812 C11.07405641 26.69940627 11.04113194 29.84960983 11 33 C10.67 32.34 10.34 31.68 10 31 C9.01 31.33 8.02 31.66 7 32 C4.52663644 29.52663644 4.72091522 28.69379626 4.62109375 25.28125 C4.56985352 23.88326172 4.56985352 23.88326172 4.51757812 22.45703125 C4.49115234 21.48121094 4.46472656 20.50539062 4.4375 19.5 C4.37767245 17.57278918 4.3140564 15.64569109 4.24609375 13.71875 C4.22216553 12.86216797 4.1982373 12.00558594 4.17358398 11.12304688 C4.12840116 8.94610269 4.12840116 8.94610269 3 7 C0.97536745 6.34786708 0.97536745 6.34786708 -1 6 C-1.042721 4.33388095 -1.04063832 2.66617115 -1 1 C-0.67 0.67 -0.34 0.34 0 0 Z " fill="#7A5AE5" transform="translate(158,120)"/>
<path d="M0 0 C1.75 0.0625 1.75 0.0625 4 1 C8.57983826 7.93518364 9 11.37139983 9 20 C0.09 20 -8.82 20 -18 20 C-18.33 20.66 -18.66 21.32 -19 22 C-19.33 21.01 -19.66 20.02 -20 19 C-19 18 -19 18 -16.49975586 17.88647461 C-15.41573486 17.89171143 -14.33171387 17.89694824 -13.21484375 17.90234375 C-11.46010742 17.90717773 -11.46010742 17.90717773 -9.66992188 17.91210938 C-7.82237305 17.92467773 -7.82237305 17.92467773 -5.9375 17.9375 C-4.08415039 17.94426758 -4.08415039 17.94426758 -2.19335938 17.95117188 C0.87114117 17.96300392 3.93554721 17.97948827 7 18 C7 17.34 7 16.68 7 16 C6.01 15.67 5.02 15.34 4 15 C3.01 15.495 3.01 15.495 2 16 C0.47851674 16.08372659 -1.04655778 16.10730027 -2.5703125 16.09765625 C-3.46621094 16.09443359 -4.36210937 16.09121094 -5.28515625 16.08789062 C-6.22230469 16.07951172 -7.15945313 16.07113281 -8.125 16.0625 C-9.06988281 16.05798828 -10.01476562 16.05347656 -10.98828125 16.04882812 C-13.32558387 16.03702357 -15.66276061 16.02055759 -18 16 C-18 15.01 -18 14.02 -18 13 C-18.66 12.67 -19.32 12.34 -20 12 C-19.34 12 -18.68 12 -18 12 C-17.67 10.68 -17.34 9.36 -17 8 C-16 9 -16 9 -15.9375 11.5625 C-15.958125 12.366875 -15.97875 13.17125 -16 14 C-13.53901884 13.94012211 -11.08421588 13.85321526 -8.625 13.75 C-7.92632812 13.73582031 -7.22765625 13.72164062 -6.5078125 13.70703125 C-4.22282354 13.63964218 -4.22282354 13.63964218 -1 13 C0.56483494 11.08611659 0.56483494 11.08611659 1 9 C1.66 9 2.32 9 3 9 C2.67 6.69 2.34 4.38 2 2 C1.34 2 0.68 2 0 2 C0 1.34 0 0.68 0 0 Z " fill="#1E2A3C" transform="translate(279,135)"/>
<path d="M0 0 C0.99 0 1.98 0 3 0 C3.17041128 4.44305876 3.33060049 8.88634635 3.48217773 13.33007812 C3.53485198 14.83505655 3.59010081 16.33994755 3.64819336 17.84472656 C4.02493277 27.65960726 3.93525629 37.20662808 3 47 C2.34 46.67 1.68 46.34 1 46 C0.505 46.495 0.505 46.495 0 47 C-1.58939511 44.18074398 -2.25136608 42.1529546 -2.25878906 38.92163086 C-2.26509338 38.13078598 -2.27139771 37.3399411 -2.27789307 36.52513123 C-2.2738446 35.68023636 -2.26979614 34.83534149 -2.265625 33.96484375 C-2.26753845 33.08977676 -2.2694519 32.21470978 -2.27142334 31.31312561 C-2.27278231 29.46647859 -2.26910598 27.61982193 -2.26074219 25.77319336 C-2.25002569 22.94428112 -2.26065377 20.11600206 -2.2734375 17.28710938 C-2.27211611 15.4921861 -2.26955413 13.69726321 -2.265625 11.90234375 C-2.26967346 11.05542465 -2.27372192 10.20850555 -2.27789307 9.33592224 C-2.22994387 3.34491581 -2.22994387 3.34491581 0 0 Z " fill="#191F2B" transform="translate(445,122)"/>
<path d="M0 0 C11.8284212 0.69018957 11.8284212 0.69018957 17 4 C18.83890112 6.84870232 20.18779824 9.70341637 21 13 C20.67 13.99 20.34 14.98 20 16 C20.38932856 18.14255793 20.38932856 18.14255793 21 20 C19.02 21.65 17.04 23.3 15 25 C14.96261719 24.16855469 14.92523438 23.33710938 14.88671875 22.48046875 C14.82097656 21.39378906 14.75523437 20.30710938 14.6875 19.1875 C14.62949219 18.10855469 14.57148438 17.02960938 14.51171875 15.91796875 C13.95637661 12.7512468 13.55860499 11.84788138 11 10 C9.19809386 9.02284391 9.19809386 9.02284391 7.3125 8.3125 C5.6728125 7.6628125 5.6728125 7.6628125 4 7 C4 6.34 4 5.68 4 5 C1.88214887 3.88214887 1.88214887 3.88214887 -1 3 C-0.67 2.01 -0.34 1.02 0 0 Z " fill="#6C5CE6" transform="translate(126,128)"/>
<path d="M0 0 C4.1734653 1.51904741 7.90729289 3.57177075 11.6875 5.875 C12.55858398 6.38353516 12.55858398 6.38353516 13.44726562 6.90234375 C16.77332809 8.92489734 18.48661612 10.43646555 20 14 C20.99 14.66 21.98 15.32 23 16 C22.01 16.99 21.02 17.98 20 19 C20.66 19.33 21.32 19.66 22 20 C14.41290201 20.30348392 9.45411179 18.54541944 3.125 14.4375 C2.15820312 13.81746094 1.19140625 13.19742188 0.1953125 12.55859375 C-0.52914062 12.04425781 -1.25359375 11.52992187 -2 11 C-2 10.67 -2 10.34 -2 10 C3.30240928 9.50675263 5.00143604 10.68411769 9 14 C11.31848988 14.8827723 13.57624781 15.42970537 16 16 C15.88693303 14.04105639 15.88693303 14.04105639 15 12 C12.66666667 10.58333333 12.66666667 10.58333333 10 10 C9.01 10.33 8.02 10.66 7 11 C6.79375 10.38125 6.5875 9.7625 6.375 9.125 C4.45224112 6.15346355 2.33405473 5.86975341 -1 5 C-0.67 3.35 -0.34 1.7 0 0 Z " fill="#715EDD" transform="translate(137,104)"/>
<path d="M0 0 C2.33294775 -0.04241723 4.66702567 -0.04092937 7 0 C8.62754644 1.62754644 8.12737077 3.44138323 8.12939453 5.6875 C8.13254669 6.68523437 8.13569885 7.68296875 8.13894653 8.7109375 C8.1369223 9.79632813 8.13489807 10.88171875 8.1328125 12 C8.13376923 13.10601562 8.13472595 14.21203125 8.13571167 15.3515625 C8.13639367 17.69531308 8.13453804 20.03906553 8.13037109 22.3828125 C8.12502314 25.98441788 8.13031547 29.58589853 8.13671875 33.1875 C8.13605797 35.45833361 8.13477682 37.72916714 8.1328125 40 C8.13483673 41.08539063 8.13686096 42.17078125 8.13894653 43.2890625 C8.13579437 44.28679687 8.13264221 45.28453125 8.12939453 46.3125 C8.12820114 47.63701172 8.12820114 47.63701172 8.12698364 48.98828125 C8 51 8 51 7 52 C1.81256095 52.59527989 1.81256095 52.59527989 -1 52 C-5 47.4 -5 47.4 -5 44 C-4.34 44 -3.68 44 -3 44 C-1 47 -1 47 -1 50 C1.97 49.505 1.97 49.505 5 49 C5.33 33.49 5.66 17.98 6 2 C1.39467611 2.69302969 1.39467611 2.69302969 -1 4 C-0.67 2.68 -0.34 1.36 0 0 Z " fill="#1C2E43" transform="translate(239,120)"/>
<path d="M0 0 C2 2 2 2 2.3125 5.375 C2.66367818 9.04364624 2.66367818 9.04364624 5.0625 11.125 C6.031875 11.74375 7.00125 12.3625 8 13 C8.69609375 13.44601563 9.3921875 13.89203125 10.109375 14.3515625 C12.06030027 15.58991578 14.02337674 16.80323554 16 18 C15.67 18.66 15.34 19.32 15 20 C14.01 20 13.02 20 12 20 C11.5875 19.401875 11.175 18.80375 10.75 18.1875 C9.0579579 15.68352487 9.0579579 15.68352487 5.5625 14.75 C0.94388472 12.48120653 -0.37286556 9.76012622 -2 5 C-2 4.34 -2 3.68 -2 3 C-2.99 3.33 -3.98 3.66 -5 4 C-5.11320856 9.08303686 -5.11320856 9.08303686 -4 14 C-2.67151309 15.00642948 -1.33849671 16.00692179 0 17 C0 17.66 0 18.32 0 19 C1.32 19 2.64 19 4 19 C4.99 20.98 5.98 22.96 7 25 C3.68253359 23.46112863 0.79522931 21.54788012 -2.1875 19.4375 C-3.06792969 18.81746094 -3.94835937 18.19742188 -4.85546875 17.55859375 C-7 16 -7 16 -8 15 C-8.15167148 13.04577134 -8.22179996 11.08490271 -8.25 9.125 C-8.27578125 8.05507812 -8.3015625 6.98515625 -8.328125 5.8828125 C-8 3 -8 3 -6.64453125 1.13671875 C-4.33002596 -0.46309369 -2.74834716 -0.3523522 0 0 Z " fill="#4E5DC4" transform="translate(117,136)"/>
<path d="M0 0 C3.79477147 3.21980609 5.56947528 6.81975284 6.0625 11.75 C5.625 14.5625 5.625 14.5625 5.0625 16.75 C4.7325 16.09 4.4025 15.43 4.0625 14.75 C3.4025 14.75 2.7425 14.75 2.0625 14.75 C2.3925 13.43 2.7225 12.11 3.0625 10.75 C2.0725 10.75 1.0825 10.75 0.0625 10.75 C-0.2675 10.09 -0.5975 9.43 -0.9375 8.75 C-0.9375 11.06 -0.9375 13.37 -0.9375 15.75 C-2.9175 15.75 -4.8975 15.75 -6.9375 15.75 C-6.9375 15.09 -6.9375 14.43 -6.9375 13.75 C-5.6175 13.75 -4.2975 13.75 -2.9375 13.75 C-4.84634692 9.20829004 -4.84634692 9.20829004 -6.9375 4.75 C-5.6175 4.09 -4.2975 3.43 -2.9375 2.75 C-5.50643838 1.46553081 -7.70326337 1.42022856 -10.5625 1.1875 C-11.56539063 1.10371094 -12.56828125 1.01992187 -13.6015625 0.93359375 C-14.37242187 0.87300781 -15.14328125 0.81242188 -15.9375 0.75 C-15.9375 0.09 -15.9375 -0.57 -15.9375 -1.25 C-10.68610855 -3.00046382 -5.05069945 -2.14923381 0 0 Z " fill="#1D2639" transform="translate(353.9375,134.25)"/>
<path d="M0 0 C0.68964844 -0.01224609 1.37929688 -0.02449219 2.08984375 -0.03710938 C3.89477494 -0.04238695 5.69917842 0.06565542 7.5 0.1875 C8.16 0.8475 8.82 1.5075 9.5 2.1875 C9.17 4.1675 8.84 6.1475 8.5 8.1875 C2.56 8.1875 -3.38 8.1875 -9.5 8.1875 C-9.5 5.8775 -9.5 3.5675 -9.5 1.1875 C-6.46576019 -0.3296199 -3.32495206 0.00310743 0 0 Z " fill="#242F43" transform="translate(378.5,145.8125)"/>
<path d="M0 0 C0.99 0 1.98 0 3 0 C5 2 5 2 6 4 C6.66 4 7.32 4 8 4 C8 4.66 8 5.32 8 6 C8.99 5.67 9.98 5.34 11 5 C12.54296875 6.109375 12.54296875 6.109375 14.1875 7.75 C16.81822283 10.17879102 18.9754359 11.55838086 22.375 12.6875 C24.169375 13.3371875 24.169375 13.3371875 26 14 C26.33 14.99 26.66 15.98 27 17 C28.97583715 17.73519522 30.98177598 18.39072482 33 19 C35.01470098 19.97004121 37.01922047 20.96244882 39 22 C38.34 22.66 37.68 23.32 37 24 C33.72866074 23.63803553 31.5776904 22.19271036 28.9375 20.3125 C25.58844803 18.01036935 22.21260296 15.97178226 18.625 14.0625 C14.66267898 11.93324145 10.77286497 9.72635447 6.9375 7.375 C6.03902344 6.82585937 5.14054687 6.27671875 4.21484375 5.7109375 C1.92262056 3.94022541 1.03219584 2.67087963 0 0 Z " fill="#5461C9" transform="translate(93,168)"/>
<path d="M0 0 C0.66 0.66 1.32 1.32 2 2 C1.24074219 1.96519531 0.48148438 1.93039063 -0.30078125 1.89453125 C-1.29464844 1.86746094 -2.28851563 1.84039062 -3.3125 1.8125 C-4.29863281 1.77769531 -5.28476563 1.74289063 -6.30078125 1.70703125 C-9.4352055 2.04723649 -10.01007775 2.683287 -12 5 C-12.99 5.33 -13.98 5.66 -15 6 C-15.33 6.66 -15.66 7.32 -16 8 C-18.72265625 8.8515625 -18.72265625 8.8515625 -22.0625 9.625 C-23.71958984 10.01558594 -23.71958984 10.01558594 -25.41015625 10.4140625 C-26.26480469 10.60742188 -27.11945313 10.80078125 -28 11 C-24.69697 7.38239572 -21.04582329 4.90206619 -16.9375 2.3125 C-16.00067383 1.70825195 -16.00067383 1.70825195 -15.04492188 1.09179688 C-8.78389462 -2.89735283 -6.75243046 -3.3148295 0 0 Z " fill="#625BDB" transform="translate(135,102)"/>
<path d="M0 0 C0 0.66 0 1.32 0 2 C-1.21236328 2.05607422 -1.21236328 2.05607422 -2.44921875 2.11328125 C-3.51785156 2.17902344 -4.58648437 2.24476563 -5.6875 2.3125 C-6.74324219 2.37050781 -7.79898437 2.42851562 -8.88671875 2.48828125 C-12.37756046 3.06205824 -14.23846103 3.79359152 -17 6 C-19.88063338 10.4254126 -20.39164063 14.09302172 -20.5625 19.3125 C-20.63948637 21.54510487 -20.76752005 23.77819792 -21 26 C-21.66 26.33 -22.32 26.66 -23 27 C-24.32479593 19.84610197 -24.54095659 13.01203672 -20.515625 6.65625 C-14.43335316 -0.7716572 -9.12622184 -1.50075648 0 0 Z " fill="#1F2D40" transform="translate(277,133)"/>
<path d="M0 0 C2 2 2 2 2.5 5.0625 C2.665 6.031875 2.83 7.00125 3 8 C3.66 8.33 4.32 8.66 5 9 C5.60107745 12.31726705 5.74433485 15.63374215 6 19 C0.06 19 -5.88 19 -12 19 C-11.505 17.515 -11.505 17.515 -11 16 C-6.71 16.33 -2.42 16.66 2 17 C1.855625 15.55625 1.71125 14.1125 1.5625 12.625 C1.48128906 11.81289062 1.40007812 11.00078125 1.31640625 10.1640625 C1.10909886 7.95727195 1.10909886 7.95727195 0 6 C-0.039992 4.00039988 -0.04346799 1.99952758 0 0 Z " fill="#263042" transform="translate(417,134)"/>
<path d="M0 0 C1.27710809 3.83132426 1.67184533 5.96892802 1 10 C-5.0765347 16.95835372 -15.07132064 21.39321792 -23 26 C-23 23 -23 23 -21 21 C-19.68 21 -18.36 21 -17 21 C-16.67 20.01 -16.34 19.02 -16 18 C-15.34 18 -14.68 18 -14 18 C-13.67 17.34 -13.34 16.68 -13 16 C-11.9275 15.566875 -10.855 15.13375 -9.75 14.6875 C-5.99104086 13.14974399 -3.53141099 11.24337033 -1 8 C-0.8139479 5.73966377 -0.8139479 5.73966377 -2 4 C-2.99 3.67 -3.98 3.34 -5 3 C-5 2.34 -5 1.68 -5 1 C-2 0 -2 0 0 0 Z " fill="#5969CB" transform="translate(156,164)"/>
<path d="M0 0 C0.99 0.66 1.98 1.32 3 2 C2.67 2.66 2.34 3.32 2 4 C2.66 4 3.32 4 4 4 C4.33 6.31 4.66 8.62 5 11 C3.02 11.99 3.02 11.99 1 13 C1 11.35 1 9.7 1 8 C-2.82517513 5.60926555 -6.59665524 5.44033448 -11 5 C-11.33 4.01 -11.66 3.02 -12 2 C-8.04 2 -4.08 2 0 2 C0 1.34 0 0.68 0 0 Z M-14 3 C-12 4 -12 4 -12 4 Z " fill="#151E2A" transform="translate(277,133)"/>
<path d="M0 0 C0.66 0.33 1.32 0.66 2 1 C2 12.55 2 24.1 2 36 C1.01 35.67 0.02 35.34 -1 35 C-1.6875 32.9375 -1.6875 32.9375 -2 31 C-1.34 31 -0.68 31 0 31 C0 20.77 0 10.54 0 0 Z " fill="#222B3A" transform="translate(238,125)"/>
<path d="M0 0 C3.47000311 1.1566677 3.84701459 1.85726716 5.6875 4.875 C6.12449219 5.57367188 6.56148437 6.27234375 7.01171875 6.9921875 C8 9 8 9 8 12 C9.32 12 10.64 12 12 12 C11.42415568 9.61435923 10.77772405 7.33317216 10 5 C10.99 5 11.98 5 13 5 C13.99 6.98 14.98 8.96 16 11 C15.319375 11.5775 14.63875 12.155 13.9375 12.75 C13.298125 13.4925 12.65875 14.235 12 15 C12.13641377 17.21858253 12.13641377 17.21858253 13 19 C12.34 19 11.68 19 11 19 C9.34375 16.8828125 9.34375 16.8828125 7.5 14.125 C4.98303319 10.37124832 4.98303319 10.37124832 2 7 C1.01 7.495 1.01 7.495 0 8 C0 5.36 0 2.72 0 0 Z M1 4 C2 6 2 6 2 6 Z " fill="#1C2B3D" transform="translate(214,134)"/>
<path d="M0 0 C3.07958333 -0.3910582 5.0544817 -0.6229741 8 0 C11.56365442 3.6824429 12.09134268 9.09325045 13 14 C12.01 14.33 11.02 14.66 10 15 C9.34 11.04 8.68 7.08 8 3 C7.01 3.33 6.02 3.66 5 4 C2.8125 3.0625 2.8125 3.0625 1 2 C0.77390663 4.12364481 0.77390663 4.12364481 2.5 5.625 C2.995 6.07875 3.49 6.5325 4 7 C2.35 7 0.7 7 -1 7 C-1.625 5.1875 -1.625 5.1875 -2 3 C-1.34 2.01 -0.68 1.02 0 0 Z " fill="#1F2941" transform="translate(410,120)"/>
<path d="M0 0 C1.32 0 2.64 0 4 0 C3.75 1.875 3.75 1.875 3 4 C1 5.125 1 5.125 -1 6 C-1.33 6.66 -1.66 7.32 -2 8 C-3.95803507 8.05389087 -5.91648909 8.09274217 -7.875 8.125 C-8.96554687 8.14820313 -10.05609375 8.17140625 -11.1796875 8.1953125 C-14 8 -14 8 -16 6 C-15.67 5.34 -15.34 4.68 -15 4 C-14.360625 4.226875 -13.72125 4.45375 -13.0625 4.6875 C-8.69369495 5.13329643 -4.95509908 3.85497416 -1 2 C-0.67 1.34 -0.34 0.68 0 0 Z " fill="#161F2D" transform="translate(280,162)"/>
<path d="M0 0 C2.31362209 1.31055496 4.62592678 2.6233403 6.9375 3.9375 C7.9265332 4.49727539 7.9265332 4.49727539 8.93554688 5.06835938 C13.88671875 7.88671875 13.88671875 7.88671875 15 9 C15.08790975 11.29151417 15.10694038 13.58572524 15.09765625 15.87890625 C15.0962413 16.5655687 15.09482635 17.25223114 15.09336853 17.95970154 C15.08775479 20.16067801 15.07520007 22.36155409 15.0625 24.5625 C15.05748676 26.05143083 15.05292355 27.54036324 15.04882812 29.02929688 C15.03778093 32.68623075 15.02050713 36.34310558 15 40 C13.02 40.495 13.02 40.495 11 41 C10.67 40.34 10.34 39.68 10 39 C11.32 39 12.64 39 14 39 C13.88162872 35.06710455 13.75737207 31.13444334 13.62768555 27.2019043 C13.56312994 25.20696681 13.5032217 23.21188071 13.44335938 21.21679688 C13.40146484 19.96318359 13.35957031 18.70957031 13.31640625 17.41796875 C13.27974854 16.26063232 13.24309082 15.1032959 13.20532227 13.91088867 C13.11671491 10.9356554 13.11671491 10.9356554 12 8 C10.9790625 7.9071875 10.9790625 7.9071875 9.9375 7.8125 C6.04548838 6.73598615 2.96555246 4.74334968 0 2 C0 1.34 0 0.68 0 0 Z " fill="#6969C2" transform="translate(155,115)"/>
<path d="M0 0 C0.66 0.33 1.32 0.66 2 1 C1.67 1.66 1.34 2.32 1 3 C3.64 3.33 6.28 3.66 9 4 C8.360625 4.433125 7.72125 4.86625 7.0625 5.3125 C4.73253997 6.91239177 4.73253997 6.91239177 4 10 C1.36 10 -1.28 10 -4 10 C-3.38461538 3.47692308 -3.38461538 3.47692308 -1.4375 1.0625 C-0.7259375 0.5365625 -0.7259375 0.5365625 0 0 Z " fill="#19273F" transform="translate(333,135)"/>
<path d="M0 0 C0.66 0.66 1.32 1.32 2 2 C5.12814514 2.24360073 5.12814514 2.24360073 8.625 2.125 C9.81351562 2.10695312 11.00203125 2.08890625 12.2265625 2.0703125 C13.59941406 2.03550781 13.59941406 2.03550781 15 2 C14.67 3.32 14.34 4.64 14 6 C9.38 6 4.76 6 0 6 C-0.66 4.35 -1.32 2.7 -2 1 C-1.34 0.67 -0.68 0.34 0 0 Z " fill="#192132" transform="translate(371,146)"/>
<path d="M0 0 C0.99 0 1.98 0 3 0 C5.36008817 3.54013225 5.23463644 5.01121955 5.1953125 9.19921875 C5.18886719 10.40771484 5.18242187 11.61621094 5.17578125 12.86132812 C5.15902344 14.12396484 5.14226562 15.38660156 5.125 16.6875 C5.11597656 17.96173828 5.10695312 19.23597656 5.09765625 20.54882812 C5.07405641 23.69940627 5.04113194 26.84960983 5 30 C2.45953618 27.45953618 2.72773909 26.47282992 2.65625 22.94921875 C2.62660156 21.94052734 2.59695312 20.93183594 2.56640625 19.89257812 C2.54449219 18.83490234 2.52257812 17.77722656 2.5 16.6875 C2.45643427 14.60787703 2.40463011 12.52840688 2.34375 10.44921875 C2.31571289 9.06222778 2.31571289 9.06222778 2.28710938 7.6472168 C1.97813144 4.79836667 1.17812113 2.5999205 0 0 Z " fill="#7661DA" transform="translate(164,123)"/>
<path d="M0 0 C2.9375 1 2.9375 1 6 3 C6.86518243 5.75878925 6.90393194 8.06992426 7 11 C6.34 11 5.68 11 5 11 C4.67 13.97 4.34 16.94 4 20 C2.68 19.67 1.36 19.34 0 19 C0.515625 18.4225 1.03125 17.845 1.5625 17.25 C3.26770953 15.14339635 3.26770953 15.14339635 2.625 12.9375 C2.41875 12.298125 2.2125 11.65875 2 11 C2.33 10.01 2.66 9.02 3 8 C2.04987876 5.97582866 1.05008653 3.97416268 0 2 C0 1.34 0 0.68 0 0 Z " fill="#5D58D5" transform="translate(143,132)"/>
<path d="M0 0 C0.33 0.66 0.66 1.32 1 2 C0.22265625 4.1640625 0.22265625 4.1640625 -0.9375 6.625 C-1.31777344 7.44226563 -1.69804687 8.25953125 -2.08984375 9.1015625 C-2.39019531 9.72804687 -2.69054687 10.35453125 -3 11 C-5.64 11 -8.28 11 -11 11 C-10.67 8.69 -10.34 6.38 -10 4 C-9.34 4 -8.68 4 -8 4 C-8 5.32 -8 6.64 -8 8 C-7.34 7.34 -6.68 6.68 -6 6 C-5.34 6 -4.68 6 -4 6 C-3.566875 4.7934375 -3.566875 4.7934375 -3.125 3.5625 C-2 1 -2 1 0 0 Z " fill="#26324B" transform="translate(402,161)"/>
<path d="M0 0 C3.31949998 1.36522233 4.50884732 2.48584326 6.0625 5.6875 C9.28714317 11.26939815 14.50774524 13.92202886 20 17 C19.67 17.66 19.34 18.32 19 19 C18.01 19 17.02 19 16 19 C15.5875 18.401875 15.175 17.80375 14.75 17.1875 C13.0579579 14.68352487 13.0579579 14.68352487 9.5625 13.75 C4.94388472 11.48120653 3.62713444 8.76012622 2 4 C2 3.34 2 2.68 2 2 C1.34 2 0.68 2 0 2 C0 1.34 0 0.68 0 0 Z " fill="#5462C5" transform="translate(113,137)"/>
<path d="M0 0 C1.61707443 0.96649647 3.20025957 1.99135588 4.75 3.0625 C5.94882813 3.88427734 5.94882813 3.88427734 7.171875 4.72265625 C7.77515625 5.14417969 8.3784375 5.56570312 9 6 C7.1875 6.625 7.1875 6.625 5 7 C4.01 6.34 3.02 5.68 2 5 C-1.12521833 4.83300768 -1.12521833 4.83300768 -4 5 C-4 4.34 -4 3.68 -4 3 C-5.65 3.33 -7.3 3.66 -9 4 C-9 3.01 -9 2.02 -9 1 C-5.48243954 -0.66107022 -3.67946714 -1.29863546 0 0 Z " fill="#6459D9" transform="translate(134,125)"/>
<path d="M0 0 C0.66 0 1.32 0 2 0 C1.9867458 3.10148341 1.82092015 6.0002855 1 9 C-2.0625 11.5625 -2.0625 11.5625 -5 13 C-6.32 12.34 -7.64 11.68 -9 11 C-9 7.7 -9 4.4 -9 1 C-8.67 1 -8.34 1 -8 1 C-8 3.97 -8 6.94 -8 10 C-4.535 9.505 -4.535 9.505 -1 9 C-0.67 6.03 -0.34 3.06 0 0 Z " fill="#575FB6" transform="translate(148,143)"/>
<path d="M0 0 C2.97 0.495 2.97 0.495 6 1 C6 2.65 6 4.3 6 6 C6.66 6.33 7.32 6.66 8 7 C8 7.66 8 8.32 8 9 C4.59687262 7.94124926 1.98646769 6.99097846 -1 5 C-0.67 3.35 -0.34 1.7 0 0 Z " fill="#645DE7" transform="translate(132,159)"/>
<path d="M0 0 C0.66 0.33 1.32 0.66 2 1 C2 2.65 2 4.3 2 6 C3.37285156 5.96519531 3.37285156 5.96519531 4.7734375 5.9296875 C5.96195312 5.91164062 7.15046875 5.89359375 8.375 5.875 C9.55835938 5.85179687 10.74171875 5.82859375 11.9609375 5.8046875 C15 6 15 6 17 8 C11.39 8 5.78 8 0 8 C0 7.01 0 6.02 0 5 C-0.66 4.67 -1.32 4.34 -2 4 C-1.34 4 -0.68 4 0 4 C0 2.68 0 1.36 0 0 Z " fill="#233346" transform="translate(261,143)"/>
<path d="M0 0 C0.99 0.33 1.98 0.66 3 1 C1.6302836 4.99500618 -0.25722422 7.80009492 -3 11 C-4.32 10.67 -5.64 10.34 -7 10 C-3.535 5.05 -3.535 5.05 0 0 Z " fill="#18212E" transform="translate(300,158)"/>
<path d="M0 0 C2.375 2.5 2.375 2.5 4 5 C0 5 0 5 -3.4375 4.4375 C-6.70507414 4.03621897 -8.86235203 4.14427783 -12 5 C-8.00563741 0.87249199 -5.91919518 -0.71030342 0 0 Z " fill="#6C61D7" transform="translate(132,108)"/>
<path d="M0 0 C0.125 7.75 0.125 7.75 -1 10 C-1.66 10 -2.32 10 -3 10 C-2.67 7.36 -2.34 4.72 -2 2 C-5.63 2 -9.26 2 -13 2 C-12.67 1.34 -12.34 0.68 -12 0 C-10.0390625 -0.44921875 -10.0390625 -0.44921875 -7.625 -0.6875 C-6.43777344 -0.81705078 -6.43777344 -0.81705078 -5.2265625 -0.94921875 C-3 -1 -3 -1 0 0 Z " fill="#232F41" transform="translate(353,152)"/>
<path d="M0 0 C0.33 0 0.66 0 1 0 C1 9.57 1 19.14 1 29 C1.99 29 2.98 29 4 29 C4 30.32 4 31.64 4 33 C3.01 32.67 2.02 32.34 1 32 C-0.46098845 29.0780231 -0.11134901 26.50106525 -0.09765625 23.2421875 C-0.0962413 22.57913605 -0.09482635 21.91608459 -0.09336853 21.23294067 C-0.08776754 19.11358137 -0.075215 16.99432741 -0.0625 14.875 C-0.05748512 13.43880361 -0.05292219 12.00260556 -0.04882812 10.56640625 C-0.03779782 7.04423655 -0.02053259 3.52212855 0 0 Z " fill="#5B62D2" transform="translate(97,133)"/>
<path d="M0 0 C0.66 0.66 1.32 1.32 2 2 C0.35 6.95 -1.3 11.9 -3 17 C-3.99 17 -4.98 17 -6 17 C-6 15.35 -6 13.7 -6 12 C-5.34 12 -4.68 12 -4 12 C-3.896875 11.13375 -3.79375 10.2675 -3.6875 9.375 C-2.96601586 5.83316877 -1.72876739 3.15687958 0 0 Z " fill="#222A40" transform="translate(412,131)"/>
<path d="M0 0 C0.66 0.33 1.32 0.66 2 1 C1.01 1.33 0.02 1.66 -1 2 C-1.33 2.99 -1.66 3.98 -2 5 C-2.66 5 -3.32 5 -4 5 C-4.33 5.66 -4.66 6.32 -5 7 C-10.42307692 10 -10.42307692 10 -13 10 C-13 10.99 -13 11.98 -13 13 C-13.66 12.67 -14.32 12.34 -15 12 C-15 11.01 -15 10.02 -15 9 C-12.48046875 7.24609375 -12.48046875 7.24609375 -9.1875 5.4375 C-8.10855469 4.83808594 -7.02960938 4.23867187 -5.91796875 3.62109375 C-4.47357422 2.81865234 -4.47357422 2.81865234 -3 2 C-2.01 1.34 -1.02 0.68 0 0 Z " fill="#575FC1" transform="translate(105,113)"/>
<path d="M0 0 C0.66 0 1.32 0 2 0 C0.89061647 6.30596952 -0.93197901 11.37529486 -4 17 C-4.66 16.67 -5.32 16.34 -6 16 C-4.02 10.72 -2.04 5.44 0 0 Z " fill="#202D3F" transform="translate(401,142)"/>
<path d="M0 0 C0.99 0 1.98 0 3 0 C2.01387981 3.55003269 1.08032022 4.93395893 -1.8125 7.3125 C-4.97385369 8.98615784 -6.50989741 9.4106003 -10 9 C-10 8.34 -10 7.68 -10 7 C-8.35 7 -6.7 7 -5 7 C-5 6.01 -5 5.02 -5 4 C-4.01 4 -3.02 4 -2 4 C-2 3.34 -2 2.68 -2 2 C-1.34 2 -0.68 2 0 2 C0 1.34 0 0.68 0 0 Z " fill="#585CD2" transform="translate(108,119)"/>
<path d="M0 0 C1.22414155 3.67242465 1.46559007 6.1422537 1 10 C-0.82062273 12.12848313 -2.66088264 13.39185681 -5 15 C-5 14.01 -5 13.02 -5 12 C-4.319375 11.360625 -3.63875 10.72125 -2.9375 10.0625 C-0.73680709 8.20560796 -0.73680709 8.20560796 -1.0625 5.8125 C-1.9194894 3.63941744 -1.9194894 3.63941744 -5 3 C-5 2.34 -5 1.68 -5 1 C-2 0 -2 0 0 0 Z " fill="#5261AE" transform="translate(156,164)"/>
<path d="M0 0 C2.43524884 0.43486586 3.8918672 0.91709819 5.875 2.4375 C8.02439036 4.20399586 8.02439036 4.20399586 11.1875 4.9375 C12.5796875 5.4634375 12.5796875 5.4634375 14 6 C14.875 8.125 14.875 8.125 15 10 C14.01 10.495 14.01 10.495 13 11 C13 9.68 13 8.36 13 7 C10.69 7 8.38 7 6 7 C6 6.01 6 5.02 6 4 C5.01 4 4.02 4 3 4 C3 3.34 3 2.68 3 2 C2.01 2 1.02 2 0 2 C0 1.34 0 0.68 0 0 Z " fill="#5A62C8" transform="translate(141,162)"/>
<path d="M0 0 C5.625 -0.25 5.625 -0.25 9 2 C9.33 2.99 9.66 3.98 10 5 C11.29355827 6.37195574 12.62298702 7.71182656 14 9 C10.40241608 7.67726488 7.36262865 6.0805802 4.1875 3.9375 C3.39730469 3.41027344 2.60710937 2.88304688 1.79296875 2.33984375 C1.20128906 1.89769531 0.60960937 1.45554687 0 1 C0 0.67 0 0.34 0 0 Z " fill="#6863CC" transform="translate(135,114)"/>
<path d="M0 0 C0.33 0.66 0.66 1.32 1 2 C-0.17578125 4.015625 -0.17578125 4.015625 -2 6 C-4.48046875 6.171875 -4.48046875 6.171875 -7.1875 5.75 C-8.08855469 5.62109375 -8.98960938 5.4921875 -9.91796875 5.359375 C-10.60503906 5.24078125 -11.29210937 5.1221875 -12 5 C-11.67 4.01 -11.34 3.02 -11 2 C-10.29875 2.226875 -9.5975 2.45375 -8.875 2.6875 C-5.12299725 3.09532639 -3.20568943 1.86377293 0 0 Z " fill="#5B66CE" transform="translate(135,176)"/>
<path d="M0 0 C1.32 0.33 2.64 0.66 4 1 C4 1.66 4 2.32 4 3 C4.66 3.33 5.32 3.66 6 4 C4.02 6.97 2.04 9.94 0 13 C-0.66 12.34 -1.32 11.68 -2 11 C-0.8141763 7.62496331 0.27573689 5.35277269 3 3 C1.68 3 0.36 3 -1 3 C-0.67 2.01 -0.34 1.02 0 0 Z " fill="#192A3A" transform="translate(300,156)"/>
<path d="M0 0 C0.66 0 1.32 0 2 0 C2.268125 0.598125 2.53625 1.19625 2.8125 1.8125 C3.85107111 3.99199326 3.85107111 3.99199326 5.375 5.3125 C7.84597413 7.87851159 9.29272214 10.87980254 11 14 C10.01 14 9.02 14 8 14 C6.68359375 12.25 6.68359375 12.25 5.4375 10 C4.25269435 7.79802999 4.25269435 7.79802999 3 6 C2.34 6 1.68 6 1 6 C0.67 4.02 0.34 2.04 0 0 Z " fill="#1E2F3D" transform="translate(306,155)"/>
<path d="M0 0 C0 1.65 0 3.3 0 5 C-0.99 5.33 -1.98 5.66 -3 6 C-2.67 4.35 -2.34 2.7 -2 1 C-3.8253125 1.2784375 -3.8253125 1.2784375 -5.6875 1.5625 C-9.02977939 1.98993182 -11.71968417 1.92258883 -15 1 C-15.33 1.66 -15.66 2.32 -16 3 C-16 2.01 -16 1.02 -16 0 C-10.47032059 -0.71033431 -5.50016964 -1.30267176 0 0 Z " fill="#192944" transform="translate(388,147)"/>
<path d="M0 0 C0.66 0 1.32 0 2 0 C3.6875 2.3125 3.6875 2.3125 5 5 C4.67 5.99 4.34 6.98 4 8 C1.69 8 -0.62 8 -3 8 C-3.33 7.34 -3.66 6.68 -4 6 C-2.35 5.34 -0.7 4.68 1 4 C0.67 2.68 0.34 1.36 0 0 Z " fill="#1C2B43" transform="translate(320,164)"/>
<path d="M0 0 C2.46800047 1.15173355 4.04783565 2.04783565 6 4 C6.125 7.625 6.125 7.625 6 11 C4.02 11 2.04 11 0 11 C0 10.34 0 9.68 0 9 C1.32 9 2.64 9 4 9 C2.09115308 4.45829004 2.09115308 4.45829004 0 0 Z " fill="#242D3D" transform="translate(347,139)"/>
<path d="M0 0 C-2.51350838 2.51350838 -4.90154819 3.11371585 -8.22265625 4.21875 C-10.19646447 4.86054904 -10.19646447 4.86054904 -11 7 C-11.66 7 -12.32 7 -13 7 C-12.875 5.1875 -12.875 5.1875 -12 3 C-7.91068936 0.33719307 -4.83960066 -0.34568576 0 0 Z " fill="#293146" transform="translate(343,148)"/>
<path d="M0 0 C8.7595092 -0.44539877 8.7595092 -0.44539877 13 3 C13 3.66 13 4.32 13 5 C12.17242187 4.50886719 12.17242187 4.50886719 11.328125 4.0078125 C8.61219077 2.83212285 6.69448241 2.79751362 3.75 2.875 C2.41195313 2.90207031 2.41195313 2.90207031 1.046875 2.9296875 C0.37140625 2.95289063 -0.3040625 2.97609375 -1 3 C-0.67 2.01 -0.34 1.02 0 0 Z " fill="#19293B" transform="translate(266,138)"/>
<path d="M0 0 C0.66 0.33 1.32 0.66 2 1 C2 3.70254461 1.96569331 5.50529228 1 8 C-1.0625 9.25 -1.0625 9.25 -3 10 C-2.95875 9.21625 -2.9175 8.4325 -2.875 7.625 C-2.71271266 4.83883881 -2.71271266 4.83883881 -5 3 C-2.625 1.4375 -2.625 1.4375 0 0 Z " fill="#16212B" transform="translate(229,145)"/>
<path d="M0 0 C4 4.75 4 4.75 4 7 C4.99 6.34 5.98 5.68 7 5 C7.99 5.33 8.98 5.66 10 6 C9.01 6.495 9.01 6.495 8 7 C7.67 7.99 7.34 8.98 7 10 C6.01 10 5.02 10 4 10 C1.09677182 6.35022743 0 4.74147821 0 0 Z " fill="#202C40" transform="translate(302,138)"/>
<path d="M0 0 C0 0.99 0 1.98 0 3 C-2.046875 4.5703125 -2.046875 4.5703125 -4.75 6.125 C-5.63171875 6.64320312 -6.5134375 7.16140625 -7.421875 7.6953125 C-9.66287802 8.82939585 -11.54883651 9.53038457 -14 10 C-11.16667533 6.95483798 -8.34499689 4.83131399 -4.75 2.75 C-3.85796875 2.22921875 -2.9659375 1.7084375 -2.046875 1.171875 C-1.03367187 0.59179688 -1.03367187 0.59179688 0 0 Z " fill="#5558C0" transform="translate(121,103)"/>
<path d="M0 0 C6.4 2.4 6.4 2.4 9 5 C2.375 5.125 2.375 5.125 -1 4 C-1.33 3.01 -1.66 2.02 -2 1 C-1.34 0.67 -0.68 0.34 0 0 Z " fill="#6764CD" transform="translate(128,99)"/>
<path d="M0 0 C3.65316671 1.24976756 4.78065836 1.67098753 7 5 C6.34 5.66 5.68 6.32 5 7 C4.67 6.01 4.34 5.02 4 4 C2.35 3.67 0.7 3.34 -1 3 C-0.67 2.01 -0.34 1.02 0 0 Z " fill="#5B62CE" transform="translate(134,156)"/>
<path d="M0 0 C3 1 3 1 4 3 C4.07065617 5.04055005 4.08421976 7.08334257 4.0625 9.125 C4.05347656 10.22070312 4.04445312 11.31640625 4.03515625 12.4453125 C4.02355469 13.28835937 4.01195312 14.13140625 4 15 C3.67 15 3.34 15 3 15 C2.92652344 14.07767578 2.92652344 14.07767578 2.8515625 13.13671875 C2.77679688 12.32847656 2.70203125 11.52023438 2.625 10.6875 C2.55539063 9.88699219 2.48578125 9.08648437 2.4140625 8.26171875 C2.10435574 5.72775559 2.10435574 5.72775559 0 3 C0 2.01 0 1.02 0 0 Z " fill="#5F63CE" transform="translate(137,138)"/>
<path d="M0 0 C7.50769231 0.61538462 7.50769231 0.61538462 10 2.5625 C10.33 3.036875 10.66 3.51125 11 4 C10.67 4.99 10.34 5.98 10 7 C8.33073546 6.02526874 6.66464358 5.04510211 5 4.0625 C4.071875 3.51722656 3.14375 2.97195312 2.1875 2.41015625 C1.465625 1.94480469 0.74375 1.47945313 0 1 C0 0.67 0 0.34 0 0 Z " fill="#6662CC" transform="translate(149,123)"/>
<path d="M0 0 C2.4375 0.8125 2.4375 0.8125 5 2 C5.33 2.99 5.66 3.98 6 5 C4.35 5 2.7 5 1 5 C0.34 3.68 -0.32 2.36 -1 1 C-0.67 0.67 -0.34 0.34 0 0 Z " fill="#635CF0" transform="translate(103,169)"/>
<path d="M0 0 C0.66 0 1.32 0 2 0 C2 2.31 2 4.62 2 7 C1.01 7 0.02 7 -1 7 C-0.67 4.69 -0.34 2.38 0 0 Z M3 2 C3.99 2.99 4.98 3.98 6 5 C4.68 4.67 3.36 4.34 2 4 C2.33 3.34 2.66 2.68 3 2 Z " fill="#1E2B42" transform="translate(392,165)"/>
<path d="M0 0 C1.134375 0.020625 2.26875 0.04125 3.4375 0.0625 C1.92642569 3.08464861 -0.79216467 4.21560978 -3.5625 6.0625 C-3.94468767 4.40635343 -4.27645102 2.73792976 -4.5625 1.0625 C-3.5625 0.0625 -3.5625 0.0625 0 0 Z " fill="#1D2C3F" transform="translate(320.5625,132.9375)"/>
<path d="M0 0 C0.66 0 1.32 0 2 0 C2 1.65 2 3.3 2 5 C2.99 4.67 3.98 4.34 5 4 C5.33 4.66 5.66 5.32 6 6 C2.25 7.125 2.25 7.125 0 6 C-0.6875 3.5 -0.6875 3.5 -1 1 C-0.67 0.67 -0.34 0.34 0 0 Z " fill="#223344" transform="translate(351,165)"/>
<path d="M0 0 C0.66 0.33 1.32 0.66 2 1 C2.6328125 3.06640625 2.6328125 3.06640625 3.125 5.5625 C3.29257812 6.38878906 3.46015625 7.21507812 3.6328125 8.06640625 C3.75398438 8.70449219 3.87515625 9.34257812 4 10 C3.34 10 2.68 10 2 10 C1.01 7.03 0.02 4.06 -1 1 C-0.67 0.67 -0.34 0.34 0 0 Z " fill="#223144" transform="translate(426,159)"/>
<path d="M0 0 C3.3 1.98 6.6 3.96 10 6 C6 7 6 7 3.3125 5.8125 C1 4 1 4 0 0 Z " fill="#5F64C4" transform="translate(133,125)"/>
<path d="M0 0 C-2.64 1.65 -5.28 3.3 -8 5 C-8 2 -8 2 -6 0 C-2.44444444 -1.22222222 -2.44444444 -1.22222222 0 0 Z " fill="#5362BE" transform="translate(141,185)"/>
<path d="M0 0 C-0.625 1.875 -0.625 1.875 -2 4 C-5.125 5.25 -5.125 5.25 -8 6 C-6.72879117 2.18637351 -4.19078006 0 0 0 Z " fill="#18293E" transform="translate(284,166)"/>
<path d="M0 0 C1.98 0 3.96 0 6 0 C6.33 1.32 6.66 2.64 7 4 C6.01 4.495 6.01 4.495 5 5 C5 4.01 5 3.02 5 2 C3.02 2 1.04 2 -1 2 C-0.67 1.34 -0.34 0.68 0 0 Z " fill="#23364B" transform="translate(280,159)"/>
<path d="M0 0 C3.16115776 1.36983503 3.9927092 1.9890638 6 5 C5.625 7.1875 5.625 7.1875 5 9 C3.79371992 6.66785852 2.8345262 4.50357861 2 2 C1.34 2 0.68 2 0 2 C0 1.34 0 0.68 0 0 Z " fill="#5D62D2" transform="translate(113,137)"/>
<path d="M0 0 C-1.125 1.5 -1.125 1.5 -3 3 C-6.1875 3.1875 -6.1875 3.1875 -9 3 C-9 2.34 -9 1.68 -9 1 C-5.8035914 -0.06546953 -3.34252724 -0.07427838 0 0 Z " fill="#1A2F45" transform="translate(347,132)"/>
<path d="M0 0 C3.125 0.375 3.125 0.375 6 1 C5.67 1.99 5.34 2.98 5 4 C2.69 3.34 0.38 2.68 -2 2 C-1.34 1.34 -0.68 0.68 0 0 Z " fill="#182736" transform="translate(335,164)"/>
<path d="M0 0 C0.66 0.33 1.32 0.66 2 1 C2 3.31 2 5.62 2 8 C1.34 8 0.68 8 0 8 C0 7.01 0 6.02 0 5 C-0.66 4.67 -1.32 4.34 -2 4 C-1.34 4 -0.68 4 0 4 C0 2.68 0 1.36 0 0 Z " fill="#1E3039" transform="translate(261,143)"/>
<path d="M0 0 C1.98 0.99 3.96 1.98 6 3 C6 3.99 6 4.98 6 6 C3.37812506 4.95125002 2.20628639 4.35068687 0.75 1.875 C0.5025 1.25625 0.255 0.6375 0 0 Z " fill="#6064BD" transform="translate(143,132)"/>
<path d="M0 0 C3.99500618 1.3697164 6.80009492 3.25722422 10 6 C6.33118845 5.29445932 3.29549466 3.72264494 0 2 C0 1.34 0 0.68 0 0 Z " fill="#6765C4" transform="translate(143,108)"/>
<path d="M0 0 C4 1 4 1 4 1 Z " fill="#000060" transform="translate(282,156)"/>
<path d="" fill="#194444" transform="translate(0,0)"/>
<path d="" fill="#000000" transform="translate(0,0)"/>
<path d="" fill="#000000" transform="translate(0,0)"/>
<path d="" fill="#000055" transform="translate(0,0)"/>
<path d="" fill="#1C1C39" transform="translate(0,0)"/>
<path d="" fill="#333333" transform="translate(0,0)"/>
<path d="" fill="#000000" transform="translate(0,0)"/>
<path d="" fill="#000055" transform="translate(0,0)"/>
<path d="" fill="#000000" transform="translate(0,0)"/>
<path d="" fill="#000000" transform="translate(0,0)"/>
<path d="" fill="#000000" transform="translate(0,0)"/>
</svg>
